#N canvas 503 39 742 578 10;
#N canvas -10 26 1370 729 key 0;
#X obj 261 466 makenote;
#X obj 124 75 bng 18 250 50 0 c2 empty empty 17 7 0 10 -262144 -1 -1
;
#X msg 59 403 127;
#X msg 106 403 320;
#X obj 274 503 noteout;
#X msg 347 466 1;
#X obj 124 94 bng 18 250 50 0 c2 empty empty 17 7 0 10 -262144 -1 -1
;
#X obj 147 75 bng 18 250 50 0 d2 empty empty 17 7 0 10 -262144 -1 -1
;
#X obj 147 94 bng 18 250 50 0 d2 empty empty 17 7 0 10 -262144 -1 -1
;
#X msg 18 403 48;
#X obj 170 75 bng 18 250 50 0 e2 empty empty 17 7 0 10 -262144 -1 -1
;
#X obj 170 94 bng 18 250 50 0 e2 empty empty 17 7 0 10 -262144 -1 -1
;
#X obj 193 75 bng 18 250 50 0 f2 empty empty 17 7 0 10 -262144 -1 -1
;
#X obj 193 94 bng 18 250 50 0 f2 empty empty 17 7 0 10 -262144 -1 -1
;
#X obj 216 75 bng 18 250 50 0 g2 empty empty 17 7 0 10 -262144 -1 -1
;
#X obj 216 94 bng 18 250 50 0 g2 empty empty 17 7 0 10 -262144 -1 -1
;
#X obj 239 75 bng 18 250 50 0 a2 empty empty 17 7 0 10 -262144 -1 -1
;
#X obj 239 94 bng 18 250 50 0 a2 empty empty 17 7 0 10 -262144 -1 -1
;
#X obj 262 75 bng 18 250 50 0 b2 empty empty 17 7 0 10 -262144 -1 -1
;
#X obj 262 94 bng 18 250 50 0 b2 empty empty 17 7 0 10 -262144 -1 -1
;
#X obj 134 31 bng 18 250 50 0 cs2 empty empty 17 7 0 10 -262144 -1
-1;
#X obj 134 50 bng 18 250 50 0 cs2 empty empty 17 7 0 10 -262144 -1
-1;
#X obj 157 31 bng 18 250 50 0 eb2 empty empty 17 7 0 10 -262144 -1
-1;
#X obj 157 50 bng 18 250 50 0 eb2 empty empty 17 7 0 10 -262144 -1
-1;
#X obj 200 31 bng 18 250 50 0 fs2 empty empty 17 7 0 10 -262144 -1
-1;
#X obj 200 50 bng 18 250 50 0 fs2 empty empty 17 7 0 10 -262144 -1
-1;
#X obj 223 31 bng 18 250 50 0 ab2 empty empty 17 7 0 10 -262144 -1
-1;
#X obj 223 50 bng 18 250 50 0 ab2 empty empty 17 7 0 10 -262144 -1
-1;
#X obj 246 31 bng 18 250 50 0 bb2 empty empty 17 7 0 10 -262144 -1
-1;
#X obj 246 50 bng 18 250 50 0 bb2 empty empty 17 7 0 10 -262144 -1
-1;
#X obj 133 28 cnv 15 20 40 empty empty empty 20 12 0 14 -1 -66577 0
;
#X obj 156 28 cnv 15 20 40 empty empty empty 20 12 0 14 -1 -66577 0
;
#X obj 199 29 cnv 15 20 40 empty empty empty 20 12 0 14 -1 -66577 0
;
#X obj 222 29 cnv 15 20 40 empty empty empty 20 12 0 14 -1 -66577 0
;
#X obj 245 29 cnv 15 20 40 empty empty empty 20 12 0 14 -1 -66577 0
;
#X obj 285 75 bng 18 250 50 0 c3 empty empty 17 7 0 10 -262144 -1 -1
;
#X obj 285 94 bng 18 250 50 0 c3 empty empty 17 7 0 10 -262144 -1 -1
;
#X obj 308 75 bng 18 250 50 0 d3 empty empty 17 7 0 10 -262144 -1 -1
;
#X obj 308 94 bng 18 250 50 0 d3 empty empty 17 7 0 10 -262144 -1 -1
;
#X obj 331 75 bng 18 250 50 0 e3 empty empty 17 7 0 10 -262144 -1 -1
;
#X obj 331 94 bng 18 250 50 0 e3 empty empty 17 7 0 10 -262144 -1 -1
;
#X obj 354 75 bng 18 250 50 0 f3 empty empty 17 7 0 10 -262144 -1 -1
;
#X obj 354 94 bng 18 250 50 0 f3 empty empty 17 7 0 10 -262144 -1 -1
;
#X obj 376 75 bng 18 250 50 0 g3 empty empty 17 7 0 10 -262144 -1 -1
;
#X obj 376 94 bng 18 250 50 0 g3 empty empty 17 7 0 10 -262144 -1 -1
;
#X obj 399 75 bng 18 250 50 0 a3 empty empty 17 7 0 10 -262144 -1 -1
;
#X obj 399 94 bng 18 250 50 0 a3 empty empty 17 7 0 10 -262144 -1 -1
;
#X obj 422 75 bng 18 250 50 0 b3 empty empty 17 7 0 10 -262144 -1 -1
;
#X obj 422 94 bng 18 250 50 0 b3 empty empty 17 7 0 10 -262144 -1 -1
;
#X obj 292 31 bng 18 250 50 0 cs3 empty empty 17 -10 0 10 -262144 -262144
-1;
#X obj 292 50 bng 18 250 50 0 cs3 empty empty 17 7 0 10 -262144 -1
-1;
#X obj 315 31 bng 18 250 50 0 eb3 empty empty 17 7 0 10 -262144 -1
-1;
#X obj 315 50 bng 18 250 50 0 eb3 empty empty 17 7 0 10 -262144 -1
-1;
#X obj 365 31 bng 18 250 50 0 fs3 empty empty 17 7 0 10 -262144 -1
-1;
#X obj 365 50 bng 18 250 50 0 fs3 empty empty 17 7 0 10 -262144 -1
-1;
#X obj 388 31 bng 18 250 50 0 ab3 empty empty 17 7 0 10 -262144 -1
-1;
#X obj 388 50 bng 18 250 50 0 ab3 empty empty 17 7 0 10 -262144 -1
-1;
#X obj 411 31 bng 18 250 50 0 bb3 empty empty 17 7 0 10 -262144 -1
-1;
#X obj 411 50 bng 18 250 50 0 bb3 empty empty 17 7 0 10 -262144 -1
-1;
#X obj 291 29 cnv 15 20 40 empty empty W 6 20 0 14 -33289 -262144 0
;
#X obj 445 75 bng 18 250 50 0 c4 empty empty 17 7 0 10 -262144 -1 -1
;
#X obj 445 94 bng 18 250 50 0 c4 empty empty 17 7 0 10 -262144 -1 -1
;
#X obj 468 75 bng 18 250 50 0 d4 empty empty 17 7 0 10 -262144 -1 -1
;
#X obj 468 94 bng 18 250 50 0 d4 empty empty 17 7 0 10 -262144 -1 -1
;
#X obj 491 75 bng 18 250 50 0 e4 empty empty 17 7 0 10 -262144 -1 -1
;
#X obj 491 94 bng 18 250 50 0 e4 empty empty 17 7 0 10 -262144 -1 -1
;
#X obj 514 75 bng 18 250 50 0 f4 empty empty 17 7 0 10 -262144 -1 -1
;
#X obj 514 94 bng 18 250 50 0 f4 empty empty 17 7 0 10 -262144 -1 -1
;
#X obj 537 75 bng 18 250 50 0 g4 empty empty 17 7 0 10 -262144 -1 -1
;
#X obj 537 94 bng 18 250 50 0 g4 empty empty 17 7 0 10 -262144 -1 -1
;
#X obj 560 75 bng 18 250 50 0 a4 empty empty 17 7 0 10 -262144 -1 -1
;
#X obj 560 94 bng 18 250 50 0 a4 empty empty 17 7 0 10 -262144 -1 -1
;
#X obj 583 75 bng 18 250 50 0 b4 empty empty 17 7 0 10 -262144 -1 -1
;
#X obj 583 94 bng 18 250 50 0 b4 empty empty 17 7 0 10 -262144 -1 -1
;
#X obj 454 32 bng 18 250 50 0 cs4 empty empty 17 7 0 10 -262144 -1
-1;
#X obj 454 51 bng 18 250 50 0 cs4 empty empty 17 7 0 10 -262144 -1
-1;
#X obj 476 32 bng 18 250 50 0 eb4 empty empty 17 7 0 10 -262144 -1
-1;
#X obj 476 51 bng 18 250 50 0 eb4 empty empty 17 7 0 10 -262144 -1
-1;
#X obj 526 32 bng 18 250 50 0 fs4 empty empty 17 7 0 10 -262144 -1
-1;
#X obj 526 51 bng 18 250 50 0 fs4 empty empty 17 7 0 10 -262144 -1
-1;
#X obj 549 32 bng 18 250 50 0 ab4 empty empty 17 7 0 10 -262144 -1
-1;
#X obj 549 51 bng 18 250 50 0 ab4 empty empty 17 7 0 10 -262144 -1
-1;
#X obj 571 32 bng 18 250 50 0 bb4 empty empty 17 7 0 10 -262144 -1
-1;
#X obj 571 51 bng 18 250 50 0 bb4 empty empty 17 7 0 10 -262144 -1
-1;
#X msg 159 403 49;
#X obj 59 369 r c2;
#X obj 159 369 r cs2;
#X obj 208 369 r d2;
#X msg 208 403 50;
#X obj 258 369 r eb2;
#X msg 258 403 51;
#X msg 309 403 52;
#X msg 358 403 53;
#X msg 408 403 54;
#X msg 459 403 55;
#X msg 508 403 56;
#X msg 558 403 57;
#X msg 609 403 58;
#X obj 309 369 r e2;
#X obj 358 369 r f2;
#X obj 408 369 r fs2;
#X obj 459 369 r g2;
#X obj 508 369 r ab2;
#X obj 558 369 r a2;
#X obj 609 369 r bb2;
#X obj 661 369 r b2;
#X msg 661 403 59;
#X obj 933 118 makenote;
#X msg 728 61 127;
#X msg 778 61 320;
#X obj 953 154 noteout;
#X msg 1019 118 1;
#X obj 1000 446 makenote;
#X msg 769 389 127;
#X msg 819 389 320;
#X obj 1025 485 noteout;
#X msg 1086 446 1;
#X obj 728 25 r c3;
#X obj 828 25 r cs3;
#X obj 877 25 r d3;
#X obj 927 25 r eb3;
#X obj 978 25 r e3;
#X obj 1027 25 r f3;
#X obj 1077 25 r fs3;
#X obj 1128 25 r g3;
#X obj 1177 25 r ab3;
#X obj 1227 25 r a3;
#X obj 1278 25 r bb3;
#X obj 1330 25 r b3;
#X msg 690 61 60;
#X msg 828 61 61;
#X msg 877 61 62;
#X msg 927 61 63;
#X msg 978 61 64;
#X msg 1027 61 65;
#X msg 1077 61 66;
#X msg 1128 61 67;
#X msg 1177 61 68;
#X msg 1227 61 69;
#X msg 1278 61 70;
#X msg 1330 61 71;
#X obj 769 350 r c4;
#X obj 869 350 r cs4;
#X obj 918 350 r d4;
#X obj 968 350 r eb4;
#X obj 1019 350 r e4;
#X obj 1068 350 r f4;
#X obj 1118 350 r fs4;
#X obj 1169 350 r g4;
#X obj 1218 350 r ab4;
#X obj 1268 350 r a4;
#X obj 1319 350 r bb4;
#X obj 1371 350 r b4;
#X msg 731 389 72;
#X msg 869 389 73;
#X msg 918 389 74;
#X msg 968 389 75;
#X msg 1019 389 76;
#X msg 1068 389 77;
#X msg 1118 389 78;
#X msg 1169 389 79;
#X msg 1218 389 80;
#X msg 1268 389 81;
#X msg 1319 389 82;
#X msg 1371 389 83;
#X obj 867 496 key;
#X obj 102 172 key;
#X obj 12 267 send c3;
#X obj 65 292 send d3;
#X obj 99 267 send e3;
#X obj 151 290 send f3;
#X obj 188 267 send g3;
#X obj 256 291 send a3;
#X obj 264 267 send b3;
#X obj 327 298 send c4;
#X obj 535 167 key;
#X obj 445 262 send cs3;
#X obj 492 296 send eb3;
#X obj 544 262 send fs3;
#X obj 621 296 send ab3;
#X obj 641 262 send bb3;
#X obj 501 216 select 119 101 116 121 117 111 112;
#X obj 714 296 send cs4;
#X obj 745 262 send eb4;
#X obj 124 113 bng 18 250 50 0 c2 empty empty 17 7 0 10 -262144 -1
-1;
#X obj 147 113 bng 18 250 50 0 d2 empty empty 17 7 0 10 -262144 -1
-1;
#X obj 170 113 bng 18 250 50 0 e2 empty empty 17 7 0 10 -262144 -1
-1;
#X obj 193 113 bng 18 250 50 0 f2 empty empty 17 7 0 10 -262144 -1
-1;
#X obj 216 113 bng 18 250 50 0 g2 empty empty 17 7 0 10 -262144 -1
-1;
#X obj 239 113 bng 18 250 50 0 a2 empty empty 17 7 0 10 -262144 -1
-1;
#X obj 262 113 bng 18 250 50 0 b2 empty empty 17 7 0 10 -262144 -1
-1;
#X obj 285 113 bng 18 250 50 0 c3 empty empty 17 7 0 10 -262144 -1
-1;
#X obj 123 71 cnv 15 20 60 empty empty empty 20 12 0 14 -233017 -66577
0;
#X obj 146 71 cnv 15 20 60 empty empty empty 20 12 0 14 -233017 -66577
0;
#X obj 169 71 cnv 15 20 60 empty empty empty 20 12 0 14 -233017 -66577
0;
#X obj 192 71 cnv 15 20 60 empty empty empty 20 12 0 14 -233017 -66577
0;
#X obj 215 71 cnv 15 20 60 empty empty empty 20 12 0 14 -233017 -66577
0;
#X obj 238 71 cnv 15 20 60 empty empty empty 20 12 0 14 -233017 -66577
0;
#X obj 261 71 cnv 15 20 60 empty empty empty 20 12 0 14 -233017 -66577
0;
#X obj 284 71 cnv 15 20 60 empty empty A 6 25 0 14 -233017 -66577 0
;
#X obj 314 29 cnv 15 20 40 empty empty E 6 20 0 14 -33289 -262144 0
;
#X obj 308 113 bng 18 250 50 0 d3 empty empty 17 7 0 10 -262144 -1
-1;
#X obj 331 113 bng 18 250 50 0 e3 empty empty 17 7 0 10 -262144 -1
-1;
#X obj 354 113 bng 18 250 50 0 f3 empty empty 17 7 0 10 -262144 -1
-1;
#X obj 376 113 bng 18 250 50 0 g3 empty empty 17 7 0 10 -262144 -1
-1;
#X obj 399 113 bng 18 250 50 0 a3 empty empty 17 7 0 10 -262144 -1
-1;
#X obj 422 113 bng 18 250 50 0 b3 empty empty 17 7 0 10 -262144 -1
-1;
#X obj 445 113 bng 18 250 50 0 c4 empty empty 17 7 0 10 -262144 -1
-1;
#X obj 307 71 cnv 15 20 60 empty empty S 6 25 0 14 -233017 -66577 0
;
#X obj 329 71 cnv 15 20 60 empty empty D 6 25 0 14 -233017 -66577 0
;
#X obj 352 71 cnv 15 20 60 empty empty F 6 25 0 14 -233017 -66577 0
;
#X obj 375 71 cnv 15 20 60 empty empty G 6 25 0 14 -233017 -66577 0
;
#X obj 398 71 cnv 15 20 60 empty empty H 6 25 0 14 -233017 -66577 0
;
#X obj 421 71 cnv 15 20 60 empty empty J 6 25 0 14 -233017 -66577 0
;
#X obj 444 71 cnv 15 20 60 empty empty K 6 25 0 14 -233017 -66577 0
;
#X obj 363 29 cnv 15 20 40 empty empty T 6 20 0 14 -33289 -262144 0
;
#X obj 386 29 cnv 15 20 40 empty empty Y 6 20 0 14 -33289 -262144 0
;
#X obj 409 29 cnv 15 20 40 empty empty U 6 20 0 14 -33289 -262144 0
;
#X obj 468 113 bng 18 250 50 0 d4 empty empty 17 7 0 10 -262144 -1
-1;
#X obj 491 113 bng 18 250 50 0 e4 empty empty 17 7 0 10 -262144 -1
-1;
#X obj 514 113 bng 18 250 50 0 f4 empty empty 17 7 0 10 -262144 -1
-1;
#X obj 537 113 bng 18 250 50 0 g4 empty empty 17 7 0 10 -262144 -1
-1;
#X obj 560 113 bng 18 250 50 0 a4 empty empty 17 7 0 10 -262144 -1
-1;
#X obj 583 113 bng 18 250 50 0 b4 empty empty 17 7 0 10 -262144 -1
-1;
#X obj 467 71 cnv 15 20 60 empty empty L 6 25 0 14 -233017 -66577 0
;
#X obj 490 71 cnv 15 20 60 empty empty : 6 25 0 14 -233017 -66577 0
;
#X obj 513 71 cnv 15 20 60 empty empty empty 6 25 0 14 -233017 -66577
0;
#X obj 536 71 cnv 15 20 60 empty empty empty 6 25 0 14 -233017 -66577
0;
#X obj 559 71 cnv 15 20 60 empty empty empty 6 25 0 14 -233017 -66577
0;
#X obj 582 71 cnv 15 20 60 empty empty empty 6 25 0 14 -233017 -66577
0;
#X obj 452 29 cnv 15 20 40 empty empty O 6 20 0 14 -33289 -262144 0
;
#X obj 475 29 cnv 15 20 40 empty empty P 6 20 0 14 -33289 -262144 0
;
#X obj 524 29 cnv 15 20 40 empty empty empty 6 20 0 14 -33289 -262144
0;
#X obj 547 29 cnv 15 20 40 empty empty empty 6 20 0 14 -33289 -262144
0;
#X obj 570 29 cnv 15 20 40 empty empty empty 6 20 0 14 -33289 -262144
0;
#X obj 112 11 tgl 15 1 empty empty QWERTY 17 7 0 10 -262144 -1 -1 1
1;
#X obj 108 196 spigot;
#X obj 470 192 spigot;
#X obj 260 540 print osk:;
#X obj 998 521 print osk:;
#X obj 934 190 print osk:;
#X obj 866 576 print kbd:;
#X obj 68 221 select 97 115 100 102 103 104 106 107 108 59;
#X obj 325 274 send d4;
#X obj 334 252 send e4;
#X connect 0 0 4 0;
#X connect 0 0 238 0;
#X connect 0 1 4 1;
#X connect 2 0 0 1;
#X connect 3 0 0 2;
#X connect 5 0 4 2;
#X connect 9 0 0 0;
#X connect 57 0 58 0;
#X connect 84 0 0 0;
#X connect 85 0 9 0;
#X connect 85 0 2 0;
#X connect 85 0 3 0;
#X connect 86 0 84 0;
#X connect 87 0 88 0;
#X connect 88 0 0 0;
#X connect 89 0 90 0;
#X connect 90 0 0 0;
#X connect 91 0 0 0;
#X connect 92 0 0 0;
#X connect 93 0 0 0;
#X connect 94 0 0 0;
#X connect 95 0 0 0;
#X connect 96 0 0 0;
#X connect 97 0 0 0;
#X connect 98 0 91 0;
#X connect 99 0 92 0;
#X connect 100 0 93 0;
#X connect 101 0 94 0;
#X connect 102 0 95 0;
#X connect 103 0 96 0;
#X connect 104 0 97 0;
#X connect 105 0 106 0;
#X connect 106 0 0 0;
#X connect 107 0 110 0;
#X connect 107 0 240 0;
#X connect 107 1 110 1;
#X connect 108 0 107 1;
#X connect 109 0 107 2;
#X connect 111 0 110 2;
#X connect 112 0 115 0;
#X connect 112 0 239 0;
#X connect 112 1 115 1;
#X connect 113 0 112 1;
#X connect 114 0 112 2;
#X connect 116 0 115 2;
#X connect 117 0 129 0;
#X connect 117 0 108 0;
#X connect 117 0 109 0;
#X connect 118 0 130 0;
#X connect 119 0 131 0;
#X connect 120 0 132 0;
#X connect 121 0 133 0;
#X connect 122 0 134 0;
#X connect 123 0 135 0;
#X connect 124 0 136 0;
#X connect 125 0 137 0;
#X connect 126 0 138 0;
#X connect 127 0 139 0;
#X connect 128 0 140 0;
#X connect 129 0 107 0;
#X connect 130 0 107 0;
#X connect 131 0 107 0;
#X connect 132 0 107 0;
#X connect 133 0 107 0;
#X connect 134 0 107 0;
#X connect 135 0 107 0;
#X connect 136 0 107 0;
#X connect 137 0 107 0;
#X connect 138 0 107 0;
#X connect 139 0 107 0;
#X connect 140 0 107 0;
#X connect 141 0 153 0;
#X connect 141 0 113 0;
#X connect 141 0 114 0;
#X connect 142 0 154 0;
#X connect 143 0 155 0;
#X connect 144 0 156 0;
#X connect 145 0 157 0;
#X connect 146 0 158 0;
#X connect 147 0 159 0;
#X connect 148 0 160 0;
#X connect 149 0 161 0;
#X connect 150 0 162 0;
#X connect 151 0 163 0;
#X connect 152 0 164 0;
#X connect 153 0 112 0;
#X connect 154 0 112 0;
#X connect 155 0 112 0;
#X connect 156 0 112 0;
#X connect 157 0 112 0;
#X connect 158 0 112 0;
#X connect 159 0 112 0;
#X connect 160 0 112 0;
#X connect 161 0 112 0;
#X connect 162 0 112 0;
#X connect 163 0 112 0;
#X connect 164 0 112 0;
#X connect 165 0 241 0;
#X connect 166 0 236 0;
#X connect 175 0 237 0;
#X connect 181 0 176 0;
#X connect 181 1 177 0;
#X connect 181 2 178 0;
#X connect 181 3 179 0;
#X connect 181 4 180 0;
#X connect 181 5 182 0;
#X connect 181 6 183 0;
#X connect 235 0 236 1;
#X connect 235 0 237 1;
#X connect 236 0 242 0;
#X connect 237 0 181 0;
#X connect 242 0 167 0;
#X connect 242 1 168 0;
#X connect 242 2 169 0;
#X connect 242 3 170 0;
#X connect 242 4 171 0;
#X connect 242 5 172 0;
#X connect 242 6 173 0;
#X connect 242 7 174 0;
#X connect 242 8 243 0;
#X connect 242 9 244 0;
#X coords 0 -1 1 1 520 140 2 100 5;
#X restore 74 27 pd key;
#N canvas 391 158 772 382 ADSR 0;
#X obj 100 50 cnv 15 92 140 empty empty ADSR 26 -10 0 14 -233017 -66577
0;
#X obj 109 64 vsl 15 100 0 127 0 0 empty empty A 2 -9 0 10 -262144
-1 -1 500 1;
#X obj 129 65 vsl 15 100 0 127 0 0 empty empty D 3 -9 0 10 -262144
-1 -1 6500 1;
#X obj 150 65 vsl 15 100 0 127 0 0 empty empty S 3 -9 0 10 -262144
-1 -1 5200 1;
#X obj 169 65 vsl 15 100 0 127 0 0 empty empty R 3 -9 0 10 -262144
-1 -1 7600 1;
#X floatatom 107 171 3 0 0 3 - - -;
#X floatatom 128 171 3 0 0 0 - - -;
#X floatatom 149 171 3 0 0 0 - - -;
#X floatatom 170 171 3 0 0 0 - - -;
#X obj 61 146 int;
#X obj 62 172 int;
#X obj 200 146 int;
#X obj 198 177 int;
#X obj 11 221 ctlout 103;
#X obj 82 222 ctlout 104;
#X obj 151 221 ctlout 105;
#X obj 220 222 ctlout 106;
#X connect 1 0 9 0;
#X connect 2 0 10 0;
#X connect 3 0 11 0;
#X connect 4 0 12 0;
#X connect 5 0 13 0;
#X connect 6 0 14 0;
#X connect 7 0 15 0;
#X connect 8 0 16 0;
#X connect 9 0 5 0;
#X connect 10 0 6 0;
#X connect 11 0 7 0;
#X connect 12 0 8 0;
#X coords 0 -1 1 1 92 140 2 100 50;
#X restore 487 381 pd ADSR;
#N canvas 741 94 493 448 mix 0;
#X obj 100 100 cnv 15 92 140 empty empty Mixer 20 -10 0 14 -233017
-66577 0;
#X obj 106 114 vsl 15 100 0 127 0 0 empty empty Osc1 0 -9 0 10 -262144
-1 -1 8600 1;
#X obj 61 244 int;
#X floatatom 105 221 3 0 0 0 - - -;
#X obj 61 286 ctlout 100;
#X obj 134 114 vsl 15 100 0 127 0 0 empty empty Osc2 0 -9 0 10 -262144
-1 -1 0 1;
#X obj 138 245 int;
#X floatatom 134 220 3 0 0 0 - - -;
#X obj 165 114 vsl 15 100 0 127 0 0 empty empty Noise -4 -9 0 10 -262144
-1 -1 0 1;
#X obj 209 245 int;
#X floatatom 165 220 3 0 0 0 - - -;
#X obj 134 285 ctlout 101;
#X obj 206 286 ctlout 102;
#X connect 1 0 2 0;
#X connect 2 0 3 0;
#X connect 3 0 4 0;
#X connect 5 0 6 0;
#X connect 6 0 7 0;
#X connect 7 0 11 0;
#X connect 8 0 9 0;
#X connect 9 0 10 0;
#X connect 10 0 12 0;
#X coords 0 -1 1 1 92 140 1 100 100;
#X restore 596 382 pd mix;
#N canvas 209 118 450 418 LFO1 0;
#X obj 100 100 cnv 15 170 140 empty empty LFO1 30 -10 0 14 -233017
-66577 0;
#X obj 107 114 vradio 15 1 0 8 empty empty Wave 0 -8 0 10 -262144 -1
-1 7;
#X text 129 111 Sine;
#X text 129 127 Saw;
#X text 128 142 Rev Saw;
#X text 129 158 Square;
#X text 129 173 Triangle;
#X text 129 220 Pulse;
#X text 130 189 S/H;
#X text 128 205 Arbi;
#X obj 187 116 vsl 15 100 0 127 0 0 empty empty Freq 0 -9 0 10 -262144
-1 -1 9900 1;
#X obj 215 117 vsl 15 100 0 127 0 0 empty empty Ampl 0 -9 0 10 -262144
-1 -1 900 1;
#X obj 243 117 vsl 15 100 0 127 0 0 empty empty PWM 0 -9 0 10 -262144
-1 -1 6400 1;
#X floatatom 187 222 3 0 0 0 - - -;
#X floatatom 215 222 3 0 0 0 - - -;
#X floatatom 244 223 3 0 0 0 - - -;
#X obj 164 242 int;
#X obj 221 246 int;
#X obj 280 212 int;
#X obj 53 289 ctlout 110;
#X obj 133 268 ctlout 112;
#X obj 204 268 ctlout 114;
#X obj 45 250 * 16;
#X obj 273 268 ctlout 20;
#X connect 1 0 22 0;
#X connect 10 0 16 0;
#X connect 11 0 17 0;
#X connect 12 0 18 0;
#X connect 13 0 20 0;
#X connect 14 0 21 0;
#X connect 15 0 23 0;
#X connect 16 0 13 0;
#X connect 17 0 14 0;
#X connect 18 0 15 0;
#X connect 22 0 19 0;
#X coords 0 -1 1 1 170 140 1 100 100;
#X restore 47 195 pd LFO1;
#N canvas 165 112 450 418 LFO1 0;
#X obj 100 100 cnv 15 170 140 empty empty LFO2 30 -10 0 14 -233017
-66577 0;
#X obj 107 114 vradio 15 1 0 8 empty empty Wave 0 -8 0 10 -262144 -1
-1 7;
#X text 129 111 Sine;
#X text 129 127 Saw;
#X text 128 142 Rev Saw;
#X text 129 158 Square;
#X text 129 173 Triangle;
#X text 129 219 Pulse;
#X text 130 189 S/H;
#X text 128 205 Arbi;
#X obj 187 116 vsl 15 100 0 127 0 0 empty empty Freq 0 -9 0 10 -262144
-1 -1 3400 1;
#X obj 215 117 vsl 15 100 0 127 0 0 empty empty Ampl 0 -9 0 10 -262144
-1 -1 7300 1;
#X obj 243 116 vsl 15 100 0 127 0 0 empty empty PWM 0 -9 0 10 -262144
-1 -1 8700 1;
#X floatatom 187 222 3 0 0 0 - - -;
#X floatatom 215 222 3 0 0 0 - - -;
#X floatatom 244 223 3 0 0 0 - - -;
#X obj 164 242 int;
#X obj 221 246 int;
#X obj 280 212 int;
#X obj 84 309 ctlout 111;
#X obj 133 268 ctlout 113;
#X obj 204 270 ctlout 115;
#X obj 41 263 * 16;
#X obj 273 268 ctlout 21;
#X connect 1 0 22 0;
#X connect 10 0 16 0;
#X connect 11 0 17 0;
#X connect 12 0 18 0;
#X connect 13 0 20 0;
#X connect 14 0 21 0;
#X connect 15 0 23 0;
#X connect 16 0 13 0;
#X connect 17 0 14 0;
#X connect 18 0 15 0;
#X connect 22 0 19 0;
#X coords 0 -1 1 1 170 140 1 100 100;
#X restore 46 380 pd LFO1;
#N canvas 323 77 504 447 OSC2 0;
#X obj 100 100 cnv 15 230 140 empty empty OSC2 60 -10 0 14 -233017
-66577 0;
#X obj 107 115 vradio 15 1 0 7 empty empty Wave 0 -8 0 10 -262144 -1
-1 4;
#X text 127 114 Sine;
#X text 127 130 Saw;
#X text 126 145 Rev Saw;
#X text 127 161 Square;
#X text 127 176 Triangle;
#X text 129 191 S/H;
#X text 127 205 Arbi;
#X obj 200 116 vsl 15 100 0 127 0 0 empty empty Ampl 0 -9 0 10 -262144
-1 -1 9000 1;
#X obj 405 49 vsl 15 100 0 127 0 0 empty empty PWM 0 -9 0 10 -262144
-1 -1 0 1;
#X floatatom 200 221 3 0 0 0 - - -;
#X floatatom 412 186 3 0 0 0 - - -;
#X obj 221 246 int;
#X obj 405 160 int;
#X obj 239 128 vradio 15 1 0 5 empty empty Oct 0 -8 0 10 -262144 -1
-1 2;
#X text 258 126 -2;
#X text 258 141 -1;
#X text 262 156 0;
#X text 260 172 +1;
#X text 260 188 +2;
#X obj 289 115 vsl 15 100 0 127 0 0 empty empty Fine 0 -9 0 10 -262144
-1 -1 7000 1;
#X floatatom 288 220 3 0 0 0 - - -;
#X obj 348 242 int;
#X obj 204 268 ctlout 119;
#X obj 69 269 * 16;
#X obj 63 310 ctlout 117;
#X obj 415 222 ctlout 25;
#X obj 348 268 ctlout 27;
#X obj 259 305 select 0 1 2 3 4;
#X obj 202 329 int 13;
#X obj 249 328 int 39;
#X obj 298 327 int 65;
#X obj 347 327 int 91;
#X obj 400 328 int 117;
#X obj 290 356 ctlout 26;
#X connect 1 0 25 0;
#X connect 9 0 13 0;
#X connect 10 0 14 0;
#X connect 11 0 24 0;
#X connect 12 0 27 0;
#X connect 13 0 11 0;
#X connect 14 0 12 0;
#X connect 15 0 29 0;
#X connect 21 0 23 0;
#X connect 22 0 28 0;
#X connect 23 0 22 0;
#X connect 25 0 26 0;
#X connect 29 0 30 0;
#X connect 29 1 31 0;
#X connect 29 2 32 0;
#X connect 29 3 33 0;
#X connect 29 4 34 0;
#X connect 30 0 35 0;
#X connect 31 0 35 0;
#X connect 32 0 35 0;
#X connect 33 0 35 0;
#X connect 34 0 35 0;
#X coords 0 -1 1 1 230 140 1 100 100;
#X restore 234 380 pd OSC2;
#N canvas 331 105 450 352 filter 0;
#X obj 100 100 cnv 15 120 140 empty empty Filter 25 -10 0 14 -233017
-66577 0;
#X obj 108 112 vradio 15 1 0 3 empty empty empty 0 -8 0 10 -262144
-1 -1 2;
#X text 126 111 HPF;
#X text 126 127 BPF;
#X text 126 143 LPF;
#X obj 159 115 vsl 15 100 0 127 0 0 empty empty Freq 0 -9 0 10 -262144
-1 -1 2000 1;
#X obj 114 245 int;
#X floatatom 158 222 3 0 0 0 - - -;
#X obj 191 116 vsl 15 100 0 127 0 0 empty empty Res 0 -9 0 10 -262144
-1 -1 7900 1;
#X obj 146 246 int;
#X floatatom 190 223 3 0 0 0 - - -;
#X obj 114 287 ctlout 108;
#X obj 206 290 ctlout 109;
#X obj 16 231 int 20;
#X obj 34 259 int 60;
#X obj 58 289 int 100;
#X obj 24 321 ctlout 107;
#X obj 14 195 select 2 1 0;
#X connect 1 0 17 0;
#X connect 5 0 6 0;
#X connect 6 0 7 0;
#X connect 7 0 11 0;
#X connect 8 0 9 0;
#X connect 9 0 10 0;
#X connect 10 0 12 0;
#X connect 13 0 16 0;
#X connect 14 0 16 0;
#X connect 15 0 16 0;
#X connect 17 0 13 0;
#X connect 17 1 14 0;
#X connect 17 2 15 0;
#X coords 0 -1 1 1 120 140 1 100 100;
#X restore 483 197 pd filter;
#X text 508 347 107 \, 108 \, 109;
#X text 476 532 103 \, 104 \, 105 \, 106;
#X text 600 531 100 \, 101 \, 102;
#X text 80 339 110 \, 112 \, 114 \, 20;
#X text 83 529 111 \, 113 \, 115 \, 21;
#N canvas 134 99 504 447 OSC2 0;
#X obj 100 100 cnv 15 230 140 empty empty OSC1 60 -10 0 14 -233017
-66577 0;
#X obj 107 115 vradio 15 1 0 7 empty empty Wave 0 -8 0 10 -262144 -1
-1 0;
#X text 127 114 Sine;
#X text 127 130 Saw;
#X text 126 145 Rev Saw;
#X text 127 161 Square;
#X text 127 176 Triangle;
#X text 134 261 Pulse;
#X text 128 190 S/H;
#X text 126 206 Arbi;
#X obj 200 116 vsl 15 100 0 127 0 0 empty empty Ampl 0 -9 0 10 -262144
-1 -1 7900 1;
#X obj 405 49 vsl 15 100 0 127 0 0 empty empty PWM 0 -9 0 10 -262144
-1 -1 0 1;
#X floatatom 200 221 3 0 0 0 - - -;
#X floatatom 412 186 3 0 0 0 - - -;
#X obj 221 246 int;
#X obj 405 160 int;
#X obj 241 130 vradio 15 1 0 5 empty empty Oct 0 -8 0 10 -262144 -1
-1 2;
#X text 260 128 -2;
#X text 260 143 -1;
#X text 264 158 0;
#X text 262 174 +1;
#X text 262 190 +2;
#X obj 293 115 vsl 15 100 0 127 0 0 empty empty Fine 0 -9 0 10 -262144
-1 -1 5300 1;
#X floatatom 292 220 3 0 0 0 - - -;
#X obj 348 242 int;
#X obj 69 269 * 16;
#X obj 415 222 ctlout 25;
#X obj 259 305 select 0 1 2 3 4;
#X obj 202 329 int 13;
#X obj 249 328 int 39;
#X obj 298 327 int 65;
#X obj 347 327 int 91;
#X obj 400 328 int 117;
#X obj 63 310 ctlout 116;
#X obj 204 268 ctlout 118;
#X obj 290 356 ctlout 23;
#X obj 348 268 ctlout 25;
#X connect 1 0 25 0;
#X connect 10 0 14 0;
#X connect 11 0 15 0;
#X connect 12 0 34 0;
#X connect 13 0 26 0;
#X connect 14 0 12 0;
#X connect 15 0 13 0;
#X connect 16 0 27 0;
#X connect 22 0 24 0;
#X connect 23 0 36 0;
#X connect 24 0 23 0;
#X connect 25 0 33 0;
#X connect 27 0 28 0;
#X connect 27 1 29 0;
#X connect 27 2 30 0;
#X connect 27 3 31 0;
#X connect 27 4 32 0;
#X connect 28 0 35 0;
#X connect 29 0 35 0;
#X connect 30 0 35 0;
#X connect 31 0 35 0;
#X connect 32 0 35 0;
#X coords 0 -1 1 1 230 140 1 100 100;
#X restore 232 196 pd OSC2;
#X text 288 342 116 \, 118 \, 23 \, 25;
#X text 290 526 117 \, 119 \, 26 \, 27;
